<svg width="144" height="126" viewBox="0 0 144 126" fill="none" xmlns="http://www.w3.org/2000/svg">
<path d="M78.6281 23.3877C78.6281 21.852 78.3439 20.3314 77.7917 18.9126C77.2396 17.4939 76.4302 16.2047 75.4099 15.1188C74.3896 14.033 73.1784 13.1716 71.8454 12.584C70.5123 11.9963 69.0835 11.6938 67.6406 11.6938C70.5547 11.6938 73.3494 10.4618 75.4099 8.26876C77.4705 6.07575 78.6281 3.10139 78.6281 0C78.6281 3.10138 79.7857 6.07575 81.8462 8.26876C83.9067 10.4618 86.7014 11.6938 89.6155 11.6938C86.7014 11.6938 83.9067 12.9258 81.8462 15.1188C79.7857 17.3118 78.6281 20.2863 78.6281 23.3877Z" fill="#BEBBF9"/>
<path d="M21.2453 111.286C21.2453 109.75 20.9611 108.23 20.4089 106.811C19.8567 105.392 19.0474 104.103 18.0271 103.017C17.0068 101.931 15.7956 101.07 14.4625 100.482C13.1295 99.8947 11.7007 99.5923 10.2578 99.5923C13.1719 99.5923 15.9666 98.3602 18.0271 96.1672C20.0876 93.9742 21.2453 90.9998 21.2453 87.8984C21.2453 90.9998 22.4028 93.9742 24.4634 96.1672C26.5239 98.3602 29.3186 99.5923 32.2327 99.5923C29.3186 99.5923 26.5239 100.824 24.4634 103.017C22.4028 105.21 21.2453 108.185 21.2453 111.286Z" fill="#BEBBF9"/>
<g clip-path="url(#clip0_225_6551)">
<path opacity="0.6" d="M113.861 106.102L69.9546 116.157L48.3906 77.8203L92.2966 67.7649L113.861 106.102Z" fill="url(#paint0_linear_225_6551)"/>
<path d="M115.8 42.3757L71.8938 52.4312L48.3897 77.8215L92.2956 67.7661L115.8 42.3757Z" fill="#5423E7"/>
<path opacity="0.6" d="M113.866 106.103L137.329 80.6844L115.765 42.3475L92.3019 67.7661L113.866 106.103Z" fill="url(#paint1_linear_225_6551)"/>
</g>
<g clip-path="url(#clip1_225_6551)">
<path opacity="0.6" d="M22.5909 51.9974L2.7268 36.348L13.1094 13.6953L32.9734 29.3447L22.5909 51.9974Z" fill="url(#paint2_linear_225_6551)"/>
<path d="M52.9174 30.7979L33.0534 15.1485L13.109 13.6905L32.973 29.3398L52.9174 30.7979Z" fill="#5423E7"/>
<path opacity="0.6" d="M22.591 51.9986L42.5345 53.4292L52.9171 30.7765L32.9736 29.3459L22.591 51.9986Z" fill="url(#paint3_linear_225_6551)"/>
</g>
<defs>
<linearGradient id="paint0_linear_225_6551" x1="73.6265" y1="78.0569" x2="94.3936" y2="116.362" gradientUnits="userSpaceOnUse">
<stop stop-color="#5423E7"/>
<stop offset="1" stop-color="#5423E7" stop-opacity="0"/>
</linearGradient>
<linearGradient id="paint1_linear_225_6551" x1="107.257" y1="60.3522" x2="128.171" y2="98.5799" gradientUnits="userSpaceOnUse">
<stop stop-color="#5423E7"/>
<stop offset="1" stop-color="#5423E7" stop-opacity="0"/>
</linearGradient>
<linearGradient id="paint2_linear_225_6551" x1="21.727" y1="24.7708" x2="12.2736" y2="47.5588" gradientUnits="userSpaceOnUse">
<stop stop-color="#5423E7"/>
<stop offset="1" stop-color="#5423E7" stop-opacity="0"/>
</linearGradient>
<linearGradient id="paint3_linear_225_6551" x1="41.596" y1="33.297" x2="32.23" y2="56.1172" gradientUnits="userSpaceOnUse">
<stop stop-color="#5423E7"/>
<stop offset="1" stop-color="#5423E7" stop-opacity="0"/>
</linearGradient>
<clipPath id="clip0_225_6551">
<rect width="76.1596" height="67.0687" fill="white" transform="matrix(0.884829 -0.465916 0.490252 0.871581 42.7422 67.7812)"/>
</clipPath>
<clipPath id="clip1_225_6551">
<rect width="43.3292" height="37.9958" fill="white" transform="matrix(0.918981 0.394301 -0.416658 0.909064 15.8281 7.75781)"/>
</clipPath>
</defs>
</svg>
