<svg width="143" height="127" viewBox="0 0 143 127" fill="none" xmlns="http://www.w3.org/2000/svg">
<path d="M64.3797 102.855C64.3797 104.39 64.6639 105.911 65.2161 107.33C65.7683 108.748 66.5776 110.037 67.5979 111.123C68.6182 112.209 69.8294 113.071 71.1625 113.658C72.4955 114.246 73.9243 114.548 75.3672 114.548C72.4531 114.548 69.6584 115.78 67.5979 117.973C65.5374 120.166 64.3797 123.141 64.3797 126.242C64.3797 123.141 63.2222 120.166 61.1616 117.973C59.1011 115.78 56.3064 114.548 53.3923 114.548C56.3064 114.548 59.1011 113.316 61.1616 111.123C63.2222 108.93 64.3797 105.956 64.3797 102.855Z" fill="#BEBBF9"/>
<path d="M121.763 14.9561C121.763 16.4917 122.047 18.0124 122.599 19.4311C123.151 20.8499 123.96 22.139 124.981 23.2249C126.001 24.3108 127.212 25.1721 128.545 25.7598C129.878 26.3475 131.307 26.6499 132.75 26.6499C129.836 26.6499 127.041 27.882 124.981 30.075C122.92 32.268 121.763 35.2424 121.763 38.3438C121.763 35.2424 120.605 32.268 118.544 30.075C116.484 27.882 113.689 26.6499 110.775 26.6499C113.689 26.6499 116.484 25.4179 118.544 23.2249C120.605 21.0319 121.763 18.0575 121.763 14.9561Z" fill="#BEBBF9"/>
<g clip-path="url(#clip0_225_6562)">
<path opacity="0.6" d="M29.1473 20.1404L73.0532 10.085L94.6172 48.4219L50.7113 58.4773L29.1473 20.1404Z" fill="url(#paint0_linear_225_6562)"/>
<path d="M27.2081 83.8665L71.114 73.811L94.6181 48.4207L50.7122 58.4761L27.2081 83.8665Z" fill="#5423E7"/>
<path opacity="0.6" d="M29.1419 20.1392L5.67849 45.5578L27.2425 83.8947L50.7059 58.4761L29.1419 20.1392Z" fill="url(#paint1_linear_225_6562)"/>
</g>
<g clip-path="url(#clip1_225_6562)">
<path opacity="0.6" d="M120.417 74.2448L140.281 89.8942L129.898 112.547L110.034 96.8975L120.417 74.2448Z" fill="url(#paint2_linear_225_6562)"/>
<path d="M90.0904 95.4443L109.954 111.094L129.899 112.552L110.035 96.9024L90.0904 95.4443Z" fill="#5423E7"/>
<path opacity="0.6" d="M120.417 74.2436L100.473 72.813L90.0907 95.4657L110.034 96.8963L120.417 74.2436Z" fill="url(#paint3_linear_225_6562)"/>
</g>
<defs>
<linearGradient id="paint0_linear_225_6562" x1="69.3813" y1="48.1852" x2="48.6142" y2="9.88055" gradientUnits="userSpaceOnUse">
<stop stop-color="#5423E7"/>
<stop offset="1" stop-color="#5423E7" stop-opacity="0"/>
</linearGradient>
<linearGradient id="paint1_linear_225_6562" x1="35.7504" y1="65.8899" x2="14.8371" y2="27.6623" gradientUnits="userSpaceOnUse">
<stop stop-color="#5423E7"/>
<stop offset="1" stop-color="#5423E7" stop-opacity="0"/>
</linearGradient>
<linearGradient id="paint2_linear_225_6562" x1="121.281" y1="101.471" x2="130.734" y2="78.6834" gradientUnits="userSpaceOnUse">
<stop stop-color="#5423E7"/>
<stop offset="1" stop-color="#5423E7" stop-opacity="0"/>
</linearGradient>
<linearGradient id="paint3_linear_225_6562" x1="101.412" y1="92.9452" x2="110.778" y2="70.125" gradientUnits="userSpaceOnUse">
<stop stop-color="#5423E7"/>
<stop offset="1" stop-color="#5423E7" stop-opacity="0"/>
</linearGradient>
<clipPath id="clip0_225_6562">
<rect width="76.1596" height="67.0687" fill="white" transform="matrix(-0.884829 0.465916 -0.490252 -0.871581 100.266 58.4609)"/>
</clipPath>
<clipPath id="clip1_225_6562">
<rect width="43.3292" height="37.9958" fill="white" transform="matrix(-0.918981 -0.394301 0.416658 -0.909064 127.18 118.484)"/>
</clipPath>
</defs>
</svg>
