<svg width="29" height="29" viewBox="0 0 29 29" fill="none" xmlns="http://www.w3.org/2000/svg">
<path d="M26.2125 13.1948V15.5981C26.2125 16.2398 25.6992 16.7648 25.0458 16.7881H22.7592C21.4992 16.7881 20.3442 15.8664 20.2392 14.6064C20.1692 13.8714 20.4492 13.1831 20.9392 12.7048C21.3708 12.2614 21.9658 12.0048 22.6192 12.0048H25.0458C25.6992 12.0281 26.2125 12.5531 26.2125 13.1948Z" fill="#0385FF"/>
<path d="M24.4272 18.5381H22.7589C20.5422 18.5381 18.6756 16.8698 18.4889 14.7464C18.3839 13.5331 18.8272 12.3198 19.7139 11.4564C20.4606 10.6864 21.4989 10.2548 22.6189 10.2548H24.4272C24.7656 10.2548 25.0456 9.97477 25.0106 9.63643C24.7539 6.80143 22.8756 4.86477 20.0872 4.5381C19.8072 4.49143 19.5156 4.47977 19.2122 4.47977H8.71224C8.38557 4.47977 8.07057 4.5031 7.76724 4.54977C4.79224 4.9231 2.87891 7.13977 2.87891 10.3131V18.4798C2.87891 21.6998 5.49224 24.3131 8.71224 24.3131H19.2122C22.4789 24.3131 24.7306 22.2714 25.0106 19.1564C25.0456 18.8181 24.7656 18.5381 24.4272 18.5381ZM15.7122 11.7714H8.71224C8.23391 11.7714 7.83724 11.3748 7.83724 10.8964C7.83724 10.4181 8.23391 10.0214 8.71224 10.0214H15.7122C16.1906 10.0214 16.5872 10.4181 16.5872 10.8964C16.5872 11.3748 16.1906 11.7714 15.7122 11.7714Z" fill="#0385FF"/>
</svg>
