<svg width="28" height="29" viewBox="0 0 28 29" fill="none" xmlns="http://www.w3.org/2000/svg">
<path d="M13.9341 3.40896L11.1225 9.95396H8.3108C7.84413 9.95396 7.38913 9.98896 6.9458 10.0823L8.11247 7.28229L8.15913 7.17729L8.22913 6.99062C8.26413 6.90896 8.28747 6.83896 8.32247 6.78062C9.6758 3.64229 11.1925 2.66229 13.9341 3.40896Z" fill="#7838D6"/>
<path d="M21.8557 10.2689L21.8324 10.2573C21.1324 10.0589 20.4207 9.95393 19.6974 9.95393H12.394L15.019 3.85227L15.054 3.7706C15.2174 3.82893 15.3924 3.9106 15.5674 3.96893L18.1457 5.05393C19.5807 5.64893 20.584 6.26727 21.2024 7.01393C21.3074 7.15393 21.4007 7.28227 21.494 7.43393C21.599 7.59727 21.6807 7.7606 21.7274 7.9356C21.774 8.0406 21.809 8.13393 21.8324 8.23893C22.0074 8.83393 22.019 9.5106 21.8557 10.2689Z" fill="#7838D6"/>
<path d="M21.3427 11.9373C20.8177 11.7856 20.2693 11.7039 19.6977 11.7039H8.31101C7.51768 11.7039 6.77101 11.8556 6.07101 12.1589C4.04101 13.0339 2.61768 15.0523 2.61768 17.3973V19.6723C2.61768 19.9523 2.64101 20.2206 2.67601 20.5006C2.93268 24.2106 4.91601 26.194 8.62601 26.439C8.89434 26.474 9.16268 26.4973 9.45434 26.4973H18.5543C22.871 26.4973 25.146 24.4439 25.3677 20.3606C25.3793 20.1389 25.391 19.9056 25.391 19.6723V17.3973C25.391 14.8189 23.676 12.6489 21.3427 11.9373ZM16.921 19.719H14.8793V21.8306C14.8793 22.309 14.4827 22.7056 14.0043 22.7056C13.526 22.7056 13.1293 22.309 13.1293 21.8306V19.719H11.0877C10.6093 19.719 10.2127 19.3339 10.2127 18.8439C10.2127 18.3656 10.6093 17.9689 11.0877 17.9689H13.1293V15.9973C13.1293 15.5189 13.526 15.1223 14.0043 15.1223C14.4827 15.1223 14.8793 15.5189 14.8793 15.9973V17.9689H16.921C17.3993 17.9689 17.796 18.3656 17.796 18.8439C17.796 19.3339 17.3993 19.719 16.921 19.719Z" fill="#7838D6"/>
</svg>
