<svg width="30" height="30" viewBox="0 0 30 30" fill="none" xmlns="http://www.w3.org/2000/svg">
    <path d="M23.6659 8.52333C23.1463 5.90124 21.2009 4.75333 18.4942 4.75333H7.88503C4.69503 4.75333 2.56836 6.34833 2.56836 10.07V16.2929C2.56836 18.9754 3.66794 20.5462 5.48044 21.2229C5.74628 21.3196 6.03628 21.4042 6.33836 21.4525C6.82169 21.5612 7.34128 21.6096 7.88503 21.6096H18.5063C21.6963 21.6096 23.8229 20.0146 23.8229 16.2929V10.07C23.8229 9.50208 23.7746 8.99458 23.6659 8.52333ZM7.18419 15C7.18419 15.4954 6.77336 15.9062 6.27794 15.9062C5.78253 15.9062 5.37169 15.4954 5.37169 15V11.375C5.37169 10.8796 5.78253 10.4687 6.27794 10.4687C6.77336 10.4687 7.18419 10.8796 7.18419 11.375V15ZM13.1896 16.3775C11.4254 16.3775 9.99961 14.9517 9.99961 13.1875C9.99961 11.4233 11.4254 9.99749 13.1896 9.99749C14.9538 9.99749 16.3796 11.4233 16.3796 13.1875C16.3796 14.9517 14.9538 16.3775 13.1896 16.3775ZM20.9954 15C20.9954 15.4954 20.5846 15.9062 20.0892 15.9062C19.5938 15.9062 19.1829 15.4954 19.1829 15V11.375C19.1829 10.8796 19.5938 10.4687 20.0892 10.4687C20.5846 10.4687 20.9954 10.8796 20.9954 11.375V15Z" fill="#12B76A"/>
    <path d="M27.4473 13.695V19.9179C27.4473 23.6396 25.3206 25.2467 22.1185 25.2467H11.5093C10.6031 25.2467 9.79351 25.1137 9.09268 24.8479C8.52476 24.6425 8.02935 24.3404 7.6306 23.9537C7.4131 23.7483 7.58226 23.4221 7.88435 23.4221H18.4935C22.9643 23.4221 25.6227 20.7637 25.6227 16.305V10.07C25.6227 9.77999 25.9489 9.59874 26.1543 9.81624C26.976 10.6862 27.4473 11.955 27.4473 13.695Z" fill="#12B76A"/>
</svg>
