<svg width="51" height="54" viewBox="0 0 51 54" fill="none" xmlns="http://www.w3.org/2000/svg">
<path fill-rule="evenodd" clip-rule="evenodd" d="M51 39.3617C46.5105 48.0508 37.4431 53.9955 26.9978 53.9955C12.0974 53.9955 0 41.8981 0 26.9978C0 12.0974 12.0974 0 26.9978 0C37.4427 0 46.5105 5.94433 51 14.6334L39.9629 22.4534C38.0859 17.103 32.9868 13.2614 26.9982 13.2614C19.4171 13.2614 13.2627 19.4162 13.2627 26.9973C13.2627 34.578 19.4171 40.7328 26.9982 40.7328C32.9872 40.7328 38.0859 36.8917 39.9629 31.5417L51 39.3617Z" fill="#0EBE8D"/>
<mask id="mask0_178_7600" style="mask-type:luminance" maskUnits="userSpaceOnUse" x="0" y="0" width="51" height="54">
<path d="M51 39.3617C46.5105 48.0508 37.4431 53.9955 26.9978 53.9955C12.0974 53.9955 0 41.8981 0 26.9978C0 12.0974 12.0974 0 26.9978 0C37.4427 0 46.5105 5.94433 51 14.6334L39.9629 22.4534C38.0859 17.103 32.9868 13.2614 26.9982 13.2614C19.4171 13.2614 13.2627 19.4162 13.2627 26.9973C13.2627 34.578 19.4171 40.7328 26.9982 40.7328C32.9872 40.7328 38.0859 36.8917 39.9629 31.5417L51 39.3617Z" fill="white"/>
</mask>
<g mask="url(#mask0_178_7600)">
<path fill-rule="evenodd" clip-rule="evenodd" d="M25.1692 13.3018C19.9391 13.1832 1.30347 26.7121 10.4648 48.5023C4.06221 44.7895 -13.5178 50.0945 -1.79794 20.113L-4.83558 12.1089L20.2746 -7.37067L56.0991 6.00897L40.8166 25.3644C40.8166 25.3644 31.4741 13.4447 25.1692 13.3018Z" fill="#8F5ADD"/>
</g>
<mask id="mask1_178_7600" style="mask-type:luminance" maskUnits="userSpaceOnUse" x="0" y="0" width="51" height="54">
<path d="M51 39.3617C46.5105 48.0508 37.4431 53.9955 26.9978 53.9955C12.0974 53.9955 0 41.8981 0 26.9978C0 12.0974 12.0974 0 26.9978 0C37.4427 0 46.5105 5.94433 51 14.6334L39.9629 22.4534C38.0859 17.103 32.9868 13.2614 26.9982 13.2614C19.4171 13.2614 13.2627 19.4162 13.2627 26.9973C13.2627 34.578 19.4171 40.7328 26.9982 40.7328C32.9872 40.7328 38.0859 36.8917 39.9629 31.5417L51 39.3617Z" fill="white"/>
</mask>
<g mask="url(#mask1_178_7600)">
<path fill-rule="evenodd" clip-rule="evenodd" d="M25.4341 14.2074C20.2265 13.7092 0.792874 24.2905 8.34679 46.6887C2.2307 42.5202 -15.6376 47.2125 -1.77032 18.1613L-4.21828 9.95815L22.2408 -7.64569L56.9987 8.30137L40.3502 26.4953C40.3502 26.4953 31.7121 14.8077 25.4341 14.2074Z" fill="#7838D6"/>
</g>
<path d="M26.7813 33.1559C30.3019 33.1559 33.1559 30.3019 33.1559 26.7813C33.1559 23.2608 30.3019 20.4068 26.7813 20.4068C23.2607 20.4068 20.4067 23.2608 20.4067 26.7813C20.4067 30.3019 23.2607 33.1559 26.7813 33.1559Z" fill="#7838D6"/>
</svg>
