<svg width="136" height="38" viewBox="0 0 136 38" fill="none" xmlns="http://www.w3.org/2000/svg">
<path fill-rule="evenodd" clip-rule="evenodd" d="M35.6263 27.4963C32.4901 33.5661 26.156 37.7188 18.8594 37.7188C8.45071 37.7188 0 29.2681 0 18.8594C0 8.4507 8.45071 0 18.8594 0C26.1558 0 32.4901 4.15244 35.6263 10.2222L27.9163 15.685C26.6051 11.9474 23.0431 9.26385 18.8597 9.26385C13.5639 9.26385 9.26474 13.5633 9.26474 18.8591C9.26474 24.1547 13.5639 28.4541 18.8597 28.4541C23.0434 28.4541 26.6051 25.7709 27.9163 22.0336L35.6263 27.4963Z" fill="#0EBE8D"/>
<mask id="mask0_287_6622" style="mask-type:luminance" maskUnits="userSpaceOnUse" x="0" y="0" width="36" height="38">
<path d="M35.6263 27.4963C32.4901 33.5661 26.156 37.7188 18.8594 37.7188C8.45071 37.7188 0 29.2681 0 18.8594C0 8.4507 8.45071 0 18.8594 0C26.1558 0 32.4901 4.15244 35.6263 10.2222L27.9163 15.685C26.6051 11.9474 23.0431 9.26385 18.8597 9.26385C13.5639 9.26385 9.26474 13.5633 9.26474 18.8591C9.26474 24.1547 13.5639 28.4541 18.8597 28.4541C23.0434 28.4541 26.6051 25.7709 27.9163 22.0336L35.6263 27.4963Z" fill="white"/>
</mask>
<g mask="url(#mask0_287_6622)">
<path fill-rule="evenodd" clip-rule="evenodd" d="M17.5824 9.29208C13.9289 9.20922 0.910819 18.6599 7.31054 33.8815C2.83795 31.288 -9.44266 34.9937 -1.25568 14.0501L-3.37765 8.45874L14.1632 -5.1488L39.1886 4.1976L28.5129 17.7184C28.5129 17.7184 21.9866 9.39187 17.5824 9.29208Z" fill="#8F5ADD"/>
</g>
<mask id="mask1_287_6622" style="mask-type:luminance" maskUnits="userSpaceOnUse" x="0" y="0" width="36" height="38">
<path d="M35.6263 27.4963C32.4901 33.5661 26.156 37.7188 18.8594 37.7188C8.45071 37.7188 0 29.2681 0 18.8594C0 8.4507 8.45071 0 18.8594 0C26.1558 0 32.4901 4.15244 35.6263 10.2222L27.9163 15.685C26.6051 11.9474 23.0431 9.26385 18.8597 9.26385C13.5639 9.26385 9.26474 13.5633 9.26474 18.8591C9.26474 24.1547 13.5639 28.4541 18.8597 28.4541C23.0434 28.4541 26.6051 25.7709 27.9163 22.0336L35.6263 27.4963Z" fill="white"/>
</mask>
<g mask="url(#mask1_287_6622)">
<path fill-rule="evenodd" clip-rule="evenodd" d="M17.7671 9.92467C14.1293 9.5766 0.553865 16.9683 5.83069 32.6146C1.55827 29.7027 -10.9237 32.9805 -1.23666 12.6866L-2.9467 6.9563L15.5365 -5.34094L39.8167 5.79896L28.1868 18.5084C28.1868 18.5084 22.1527 10.344 17.7671 9.92467Z" fill="#7838D6"/>
</g>
<path d="M18.7079 23.1612C21.1672 23.1612 23.1609 21.1676 23.1609 18.7082C23.1609 16.2489 21.1672 14.2552 18.7079 14.2552C16.2486 14.2552 14.2549 16.2489 14.2549 18.7082C14.2549 21.1676 16.2486 23.1612 18.7079 23.1612Z" fill="#7838D6"/>
<path d="M47.3083 26.5787C45.7444 26.5787 44.4071 26.301 43.2963 25.7456C42.1854 25.1902 41.3304 24.4228 40.7312 23.4436C40.1465 22.4497 39.8542 21.3096 39.8542 20.0234C39.8542 18.7226 40.0734 17.5168 40.5119 16.406C40.965 15.2806 41.6081 14.3013 42.4412 13.4682C43.2743 12.6351 44.2682 11.9847 45.4229 11.517C46.5775 11.0346 47.871 10.7935 49.3034 10.7935C50.6334 10.7935 51.8027 11.0127 52.8112 11.4512C53.8197 11.8897 54.5944 12.5255 55.1351 13.3586L53.0743 15.0906C52.6504 14.5059 52.1096 14.0601 51.4519 13.7532C50.7942 13.4463 50.0123 13.2928 49.1061 13.2928C48.1268 13.2928 47.2425 13.4609 46.4533 13.7971C45.664 14.1332 44.9917 14.6082 44.4363 15.2221C43.8809 15.8214 43.457 16.5229 43.1647 17.3268C42.8724 18.1161 42.7262 18.9565 42.7262 19.848C42.7262 20.6812 42.9089 21.4193 43.2743 22.0624C43.6397 22.7055 44.1805 23.2024 44.8967 23.5532C45.6129 23.904 46.4898 24.0794 47.5276 24.0794C48.3899 24.0794 49.1865 23.9332 49.9173 23.6409C50.6627 23.3486 51.3204 22.9028 51.8904 22.3035L53.5566 24.1013C52.8112 24.949 51.8977 25.5775 50.8161 25.9867C49.7492 26.3814 48.5799 26.5787 47.3083 26.5787ZM60.5296 26.5129C59.3896 26.5129 58.3884 26.301 57.526 25.8771C56.6783 25.4386 56.0206 24.8394 55.5529 24.0794C55.0852 23.3047 54.8513 22.3985 54.8513 21.3608C54.8513 20.0454 55.151 18.8761 55.7502 17.853C56.3495 16.8152 57.168 16.0041 58.2057 15.4194C59.258 14.8202 60.4565 14.5205 61.8012 14.5205C62.9559 14.5205 63.957 14.7325 64.8048 15.1563C65.6671 15.5656 66.3321 16.1575 66.7998 16.9322C67.2676 17.6922 67.5014 18.5984 67.5014 19.6507C67.5014 20.9515 67.2018 22.1208 66.6025 23.1585C66.0033 24.1963 65.1775 25.0148 64.1251 25.614C63.0874 26.2133 61.8889 26.5129 60.5296 26.5129ZM60.705 24.167C61.4943 24.167 62.1885 23.9843 62.7878 23.619C63.387 23.2389 63.862 22.7201 64.2128 22.0624C64.5636 21.4046 64.739 20.6446 64.739 19.7823C64.739 18.8761 64.4686 18.1599 63.9278 17.6337C63.387 17.1076 62.627 16.8445 61.6477 16.8445C60.8731 16.8445 60.1788 17.0345 59.565 17.4145C58.9657 17.7799 58.4907 18.2914 58.1399 18.9492C57.7891 19.6069 57.6137 20.3669 57.6137 21.2292C57.6137 22.1501 57.8841 22.8735 58.4249 23.3997C58.9657 23.9113 59.7257 24.167 60.705 24.167ZM74.6602 26.5129C73.5202 26.5129 72.519 26.301 71.6567 25.8771C70.8089 25.4386 70.1512 24.8394 69.6835 24.0794C69.2158 23.3047 68.982 22.3985 68.982 21.3608C68.982 20.0454 69.2816 18.8761 69.8808 17.853C70.4801 16.8152 71.2986 16.0041 72.3363 15.4194C73.3887 14.8202 74.5872 14.5205 75.9318 14.5205C77.0865 14.5205 78.0877 14.7325 78.9354 15.1563C79.7977 15.5656 80.4628 16.1575 80.9305 16.9322C81.3982 17.6922 81.632 18.5984 81.632 19.6507C81.632 20.9515 81.3324 22.1208 80.7332 23.1585C80.1339 24.1963 79.3081 25.0148 78.2558 25.614C77.218 26.2133 76.0195 26.5129 74.6602 26.5129ZM74.8356 24.167C75.6249 24.167 76.3191 23.9843 76.9184 23.619C77.5176 23.2389 77.9927 22.7201 78.3434 22.0624C78.6942 21.4046 78.8696 20.6446 78.8696 19.7823C78.8696 18.8761 78.5992 18.1599 78.0584 17.6337C77.5176 17.1076 76.7576 16.8445 75.7784 16.8445C75.0037 16.8445 74.3095 17.0345 73.6956 17.4145C73.0963 17.7799 72.6213 18.2914 72.2705 18.9492C71.9198 19.6069 71.7444 20.3669 71.7444 21.2292C71.7444 22.1501 72.0148 22.8735 72.5555 23.3997C73.0963 23.9113 73.8564 24.167 74.8356 24.167ZM90.0844 26.5129C89.1051 26.5129 88.2574 26.3375 87.5412 25.9867C86.825 25.6213 86.2842 25.0879 85.9188 24.3863C85.5534 23.6701 85.3854 22.7858 85.4146 21.7335C85.4438 20.2719 85.7069 19.0003 86.2038 17.9187C86.7008 16.8372 87.395 16.0041 88.2866 15.4194C89.1928 14.8202 90.2671 14.5205 91.5094 14.5205C92.4741 14.5205 93.3437 14.7252 94.1184 15.1344C94.893 15.529 95.5069 16.1137 95.96 16.8883C96.4277 17.6483 96.6615 18.5692 96.6615 19.6507C96.6615 20.6446 96.4934 21.5581 96.1573 22.3912C95.8357 23.2243 95.3753 23.9478 94.7761 24.5617C94.1768 25.1755 93.4753 25.6579 92.6714 26.0087C91.8821 26.3448 91.0198 26.5129 90.0844 26.5129ZM82.1479 30.6127L85.3269 14.6521H87.9358L87.4097 17.3268L86.6862 20.44L86.2915 23.5751L84.8884 30.6127H82.1479ZM89.8651 24.167C90.6544 24.167 91.3486 23.9843 91.9479 23.619C92.5472 23.2389 93.0222 22.7201 93.373 22.0624C93.7237 21.4046 93.8991 20.6446 93.8991 19.7823C93.8991 18.8761 93.6287 18.1599 93.0879 17.6337C92.5472 17.1076 91.7871 16.8445 90.8079 16.8445C90.0332 16.8445 89.339 17.0345 88.7251 17.4145C88.1258 17.7799 87.6508 18.2914 87.3 18.9492C86.9493 19.6069 86.7739 20.3669 86.7739 21.2292C86.7739 22.1354 87.0443 22.8516 87.585 23.3778C88.1258 23.904 88.8859 24.167 89.8651 24.167ZM103.908 26.5129C102.739 26.5129 101.723 26.301 100.861 25.8771C99.9986 25.4386 99.3263 24.8394 98.844 24.0794C98.3763 23.3047 98.1424 22.3985 98.1424 21.3608C98.1424 20.0307 98.4347 18.8542 99.0194 17.831C99.604 16.8079 100.401 16.0041 101.409 15.4194C102.432 14.8202 103.594 14.5205 104.895 14.5205C105.991 14.5205 106.941 14.7252 107.745 15.1344C108.549 15.5437 109.17 16.1356 109.609 16.9102C110.062 17.6703 110.288 18.5838 110.288 19.6507C110.288 19.9284 110.274 20.2134 110.244 20.5058C110.215 20.7981 110.171 21.0685 110.113 21.3169H100.181L100.488 19.4973H108.819L107.701 20.1111C107.818 19.3657 107.767 18.7445 107.548 18.2476C107.329 17.7507 106.978 17.3706 106.495 17.1076C106.013 16.8445 105.436 16.7129 104.763 16.7129C103.96 16.7129 103.258 16.9029 102.659 17.283C102.074 17.6483 101.621 18.1745 101.299 18.8615C100.978 19.5338 100.817 20.3231 100.817 21.2292C100.817 22.1793 101.088 22.9101 101.628 23.4216C102.184 23.9332 103.039 24.189 104.193 24.189C104.851 24.189 105.48 24.0867 106.079 23.882C106.678 23.6628 107.175 23.3632 107.57 22.9832L108.71 24.8905C108.096 25.4313 107.365 25.8406 106.517 26.1183C105.684 26.3814 104.815 26.5129 103.908 26.5129ZM111.607 26.3594L113.931 14.6521H116.54L115.882 17.9845L115.641 17.0199C116.182 16.0698 116.868 15.4194 117.702 15.0686C118.535 14.7032 119.551 14.5205 120.749 14.5205L120.245 17.1295C120.128 17.1003 120.018 17.0856 119.916 17.0856C119.814 17.071 119.697 17.0637 119.565 17.0637C118.498 17.0637 117.614 17.3487 116.912 17.9187C116.211 18.4741 115.743 19.3657 115.509 20.5935L114.347 26.3594H111.607ZM125.861 26.5129C124.911 26.5129 124.041 26.3083 123.252 25.899C122.477 25.4898 121.856 24.9052 121.388 24.1451C120.935 23.3705 120.709 22.4424 120.709 21.3608C120.709 20.3669 120.869 19.4534 121.191 18.6203C121.527 17.7872 121.995 17.0637 122.594 16.4498C123.193 15.836 123.888 15.361 124.677 15.0248C125.481 14.6886 126.358 14.5205 127.308 14.5205C128.287 14.5205 129.127 14.6959 129.829 15.0467C130.545 15.3975 131.086 15.931 131.451 16.6472C131.817 17.3487 131.985 18.2257 131.956 19.278C131.926 20.725 131.663 21.9966 131.166 23.0928C130.669 24.1744 129.975 25.0148 129.084 25.614C128.192 26.2133 127.118 26.5129 125.861 26.5129ZM126.562 24.167C127.352 24.167 128.046 23.9843 128.645 23.619C129.244 23.2389 129.719 22.7201 130.07 22.0624C130.421 21.4046 130.596 20.6446 130.596 19.7823C130.596 18.8761 130.326 18.1599 129.785 17.6337C129.244 17.1076 128.484 16.8445 127.505 16.8445C126.73 16.8445 126.036 17.0345 125.422 17.4145C124.823 17.7799 124.348 18.2914 123.997 18.9492C123.646 19.6069 123.471 20.3669 123.471 21.2292C123.471 22.1354 123.741 22.8516 124.282 23.3778C124.823 23.904 125.583 24.167 126.562 24.167ZM129.434 26.3594L129.96 23.6847L130.706 20.5715L131.079 17.4364L131.627 14.6521H134.367L132.043 26.3594H129.434Z" fill="black"/>
</svg>
