<svg width="93" height="93" viewBox="0 0 93 93" fill="none" xmlns="http://www.w3.org/2000/svg">
<g clip-path="url(#clip0_484_206)">
<path d="M78.125 67.8094C78.125 85.2031 64.0375 85.2031 46.5 85.2031C28.9625 85.2031 14.875 85.2031 14.875 67.8094C14.875 50.4156 29.1062 21.9531 46.5 21.9531C63.8937 21.9531 78.125 50.2719 78.125 67.8094Z" fill="#37C9A0"/>
<path opacity="0.5" d="M78.1281 67.8094C78.1281 61.9156 76.5469 54.7281 73.6719 47.8281C74.2469 52.2844 73.0969 60.1906 59.4406 63.2094C40.0344 67.3781 50.0969 72.8406 42.4781 73.5594C36.0094 74.1344 18.7594 71.5469 15.3094 61.7719C15.0219 63.9281 14.7344 65.9406 14.7344 67.9531C14.8781 85.2031 29.1094 85.2031 46.5031 85.2031C63.8969 85.2031 78.1281 85.2031 78.1281 67.8094Z" fill="#097456"/>
<path d="M49.3766 79.4531H46.0703V85.2031L59.4391 92.3906L89.6266 83.0469V78.0156L78.5578 71.5469L49.3766 79.4531Z" fill="#0A8563"/>
<path d="M46.5 76.1469C46.5 76.1469 49.95 81.7531 59.725 86.6406C59.725 86.6406 74.9625 85.9219 89.625 76.1469C89.625 76.1469 81.1438 71.9781 78.7 66.5156C78.7 66.5156 72.95 74.5656 46.5 76.1469Z" fill="#37C9A0"/>
<path d="M40.0359 79.3078L43.1984 79.1641L43.6297 84.4828L31.1234 92.3891L1.07969 85.9203L0.648438 81.1766L10.8547 74.1328L40.0359 79.3078Z" fill="#0A8563"/>
<path d="M42.475 76.0031C42.475 76.0031 39.4562 81.6094 30.4 86.9281C30.4 86.9281 15.5938 87.3594 0.5 79.4531C0.5 79.4531 8.55 74.8531 10.4187 69.3906C10.4187 69.3906 16.7438 76.5781 42.475 76.0031Z" fill="#37C9A0"/>
<path d="M35.2859 77.592C35.2859 77.592 34.8547 78.742 36.8672 78.8858L31.5484 83.342C31.5484 83.342 28.3859 83.0545 27.6672 85.2108C27.6672 85.2108 14.7297 83.7733 6.39219 80.0358C6.39219 80.0358 8.11719 78.742 5.96094 77.8795C5.96094 77.8795 8.40469 76.1545 8.97969 74.5733C8.97969 74.5733 11.2797 74.8608 11.9984 73.1358C12.2859 72.992 20.9109 78.167 35.2859 77.592Z" stroke="#0A8563" stroke-width="1.51562" stroke-miterlimit="10"/>
<path d="M13.1453 79.5969C14.6537 79.5969 15.8766 78.7602 15.8766 77.7281C15.8766 76.696 14.6537 75.8594 13.1453 75.8594C11.6369 75.8594 10.4141 76.696 10.4141 77.7281C10.4141 78.7602 11.6369 79.5969 13.1453 79.5969Z" fill="#0A8563"/>
<path d="M27.8109 75.4234C27.8109 75.4234 24.5047 79.7359 17.3172 85.6297L17.7484 89.5109L12.7172 88.3609L12.4297 84.1922C12.4297 84.1922 19.7609 77.4359 21.3422 74.1297C21.1984 74.1297 23.7859 74.9922 27.8109 75.4234ZM61.0172 74.4172C61.0172 74.4172 62.3109 77.8672 72.0859 84.1922V88.3609L77.6922 86.6359V82.3234C77.6922 82.3234 70.9359 77.5797 66.9109 72.8359L61.0172 74.4172Z" fill="#F9F3D9"/>
<path d="M52.825 69.8266L49.6625 69.6828L49.375 75.5766L62.1688 83.7703L92.2125 75.5766L92.3563 70.4016L81.8625 63.0703L52.825 69.8266Z" fill="#0A8563"/>
<path d="M50.2422 66.2281C50.2422 66.2281 53.4047 72.2656 62.7484 77.7281C62.7484 77.7281 77.6984 77.7281 92.5047 68.5281C92.5047 68.5281 84.3109 63.7844 82.2984 57.8906C82.2984 57.8906 76.1172 65.9406 50.2422 66.2281Z" fill="#37C9A0"/>
<path d="M56.7062 67.8141C56.7062 67.8141 57.425 68.9641 55.125 69.3953L61.1625 74.1391C61.1625 74.1391 64.6125 73.2766 65.7625 75.2891C65.7625 75.2891 80.1375 72.7016 86.75 69.2516C86.75 69.2516 84.5938 68.2453 86.75 66.9516C86.75 66.9516 84.1625 64.7953 83.1562 63.3578C83.1562 63.3578 80.7125 64.0766 79.4188 62.3516C79.4188 62.4953 74.2437 67.0953 56.7062 67.8141Z" stroke="#0A8563" stroke-width="1.51562" stroke-miterlimit="10"/>
<path d="M67.7748 71.3979C67.1998 72.1167 65.3311 72.4042 63.7498 71.9729C62.1686 71.5417 61.4498 70.5354 62.0248 69.8167C62.5998 69.0979 64.4686 68.8104 66.0498 69.2417C67.6311 69.6729 68.3498 70.5354 67.7748 71.3979Z" fill="#0A8563"/>
<path d="M64.8984 65.0734C64.8984 65.0734 68.3484 69.6734 75.6797 75.8547L75.5359 80.1672L80.5672 78.7297L80.7109 74.1297C80.7109 74.1297 73.2359 66.9422 71.3672 63.4922C71.5109 63.4922 69.0672 64.4984 64.8984 65.0734Z" fill="#F9F3D9"/>
<path d="M66.625 3.26562C66.625 12.0344 55.2687 26.2656 46.5 26.2656C37.7312 26.2656 26.375 13.4719 26.375 4.70312C26.375 -4.06562 27.6688 4.70312 36.4375 4.70312C37.7312 4.70312 43.7687 0.390625 46.5 0.390625C48.3687 0.390625 53.6875 4.70312 56.5625 4.70312C64.1813 4.70312 66.625 -3.34687 66.625 3.26562Z" fill="#37C9A0"/>
<path d="M43.9122 19.5105C43.0497 20.0855 38.8809 19.6543 37.5872 20.6605C35.8622 21.9543 38.3059 24.973 36.5809 26.8418C33.1309 30.2918 30.3997 34.173 31.2622 36.3293C32.6997 40.0668 35.4309 29.4293 37.8747 33.4543C40.3184 37.4793 39.8872 30.723 43.6247 34.173C47.3622 37.623 44.1997 27.9918 47.7934 32.1605C51.3872 36.3293 51.5309 41.073 54.1184 41.073C57.1372 41.073 50.9559 29.7168 54.9809 32.448C59.0059 35.1793 63.4622 34.173 59.4372 30.0043C58.1434 28.7105 56.4184 26.4105 54.4059 24.398C53.6872 23.6793 54.2622 19.9418 53.5434 19.3668C52.6809 18.648 50.5247 20.948 49.6622 20.5168C47.9372 19.6543 48.5122 21.2355 45.9247 21.6668C44.1997 22.2418 45.6372 18.3605 43.9122 19.5105Z" fill="#097456"/>
<path d="M27.381 27.9939C32.9872 22.6752 43.1935 25.6939 49.231 28.2814C55.1247 30.8689 58.7185 22.6752 54.981 18.5064C52.8247 16.0627 49.3747 18.9377 48.081 20.6627C46.6435 22.3877 45.4935 24.2564 43.9122 25.9814C41.6122 28.5689 36.006 26.4127 37.731 22.8189C39.5997 19.0814 47.506 23.3939 50.0935 24.1127C55.1247 25.5502 60.4435 26.1252 65.4747 24.2564C67.1997 23.6814 66.481 20.8064 64.756 21.5252C59.1497 23.5377 53.5435 22.2439 48.2247 20.5189C45.4935 19.6564 41.181 17.3564 38.306 18.6502C30.1122 22.5314 37.731 33.6002 44.631 29.2877C46.2122 28.2814 47.2185 26.7002 48.3685 25.2627C49.0872 24.4002 52.681 18.9377 53.5435 21.6689C53.9747 23.1064 53.5435 25.6939 51.9622 26.1252C50.956 26.5564 48.9435 25.1189 47.9372 24.8314C46.0685 24.1127 44.1997 23.5377 42.1872 23.1064C36.8685 21.9564 29.681 22.2439 25.5122 26.1252C24.0747 27.2752 26.0872 29.2877 27.381 27.9939Z" fill="#E8E8E8"/>
<path d="M64.9 1.10938C63.4625 2.25937 60.875 4.70312 56.5625 4.70312C53.6875 4.70312 48.3687 0.390625 46.5 0.390625C43.7688 0.390625 37.7312 4.70312 36.4375 4.70312C31.6938 4.70312 29.1062 2.25937 27.8125 1.25313C27.8125 1.25313 29.3937 7.72188 34.2812 11.0281C37.875 13.3281 37.4438 10.5969 39.3125 8.00938C41.1812 5.42188 42.475 4.12812 45.7812 10.5969C47.5063 14.1906 50.8125 0.821875 53.4 5.13438C58.1437 13.0406 59.8687 8.72813 64.9 1.10938Z" fill="#097456"/>
<path d="M75.8307 75.7172L75.6869 80.0297L80.7182 78.5922L80.8619 73.9922C80.8619 74.1359 77.8432 75.2859 75.8307 75.7172ZM72.0932 84.3422V88.5109L77.6994 86.7859V82.4734C77.5557 82.3297 76.1182 83.1922 72.0932 84.3422ZM17.3244 85.4922L17.7557 89.5172L12.7244 88.3672L12.4369 84.1984C12.2932 84.1984 14.3057 84.9172 17.3244 85.4922Z" fill="#37C9A0"/>
</g>
<defs>
<clipPath id="clip0_484_206">
<rect width="92" height="92" fill="white" transform="translate(0.5 0.390625)"/>
</clipPath>
</defs>
</svg>
