<svg width="30" height="30" viewBox="0 0 30 30" fill="none" xmlns="http://www.w3.org/2000/svg">
<path d="M15.0003 2.91666C11.8345 2.91666 9.26074 5.49041 9.26074 8.65624C9.26074 11.7617 11.6895 14.275 14.8553 14.3837C14.952 14.3717 15.0487 14.3717 15.1212 14.3837C15.1453 14.3837 15.1574 14.3837 15.1816 14.3837C15.1937 14.3837 15.1937 14.3837 15.2057 14.3837C18.2991 14.275 20.7278 11.7617 20.7399 8.65624C20.7399 5.49041 18.1662 2.91666 15.0003 2.91666Z" fill="#12B76A"/>
<path d="M21.1382 17.61C17.7669 15.3625 12.269 15.3625 8.87358 17.61C7.339 18.625 6.49316 20.0146 6.49316 21.5009C6.49316 22.9871 7.339 24.3646 8.8615 25.3796C10.5532 26.5155 12.7765 27.0834 14.9998 27.0834C17.2232 27.0834 19.4465 26.5155 21.1382 25.3796C22.6607 24.3525 23.5065 22.975 23.5065 21.4767C23.4944 20.0025 22.6607 18.6129 21.1382 17.61ZM17.8152 20.51L14.7702 23.555C14.6252 23.7 14.4319 23.7725 14.2386 23.7725C14.0452 23.7725 13.8519 23.6879 13.7069 23.555L12.1844 22.0325C11.8944 21.7425 11.8944 21.2592 12.1844 20.9692C12.4744 20.6792 12.9577 20.6792 13.2477 20.9692L14.2386 21.96L16.7519 19.4467C17.0419 19.1567 17.5252 19.1567 17.8152 19.4467C18.1173 19.7367 18.1173 20.22 17.8152 20.51Z" fill="#12B76A"/>
</svg>
