<svg width="24" height="25" viewBox="0 0 24 25" fill="none" xmlns="http://www.w3.org/2000/svg">
<path d="M2 2.71887H3.74001C4.82001 2.71887 5.67 3.64887 5.58 4.71887L4.75 14.6789C4.61 16.3089 5.89999 17.7089 7.53999 17.7089H18.19C19.63 17.7089 20.89 16.5289 21 15.0989L21.54 7.59888C21.66 5.93888 20.4 4.58887 18.73 4.58887H5.82001" stroke="#7E7F7F" stroke-width="1.5" stroke-miterlimit="10" stroke-linecap="round" stroke-linejoin="round"/>
<path d="M16.25 22.7189C16.9404 22.7189 17.5 22.1592 17.5 21.4689C17.5 20.7785 16.9404 20.2189 16.25 20.2189C15.5596 20.2189 15 20.7785 15 21.4689C15 22.1592 15.5596 22.7189 16.25 22.7189Z" stroke="#7E7F7F" stroke-width="1.5" stroke-miterlimit="10" stroke-linecap="round" stroke-linejoin="round"/>
<path d="M8.25 22.7189C8.94036 22.7189 9.5 22.1592 9.5 21.4689C9.5 20.7785 8.94036 20.2189 8.25 20.2189C7.55964 20.2189 7 20.7785 7 21.4689C7 22.1592 7.55964 22.7189 8.25 22.7189Z" stroke="#7E7F7F" stroke-width="1.5" stroke-miterlimit="10" stroke-linecap="round" stroke-linejoin="round"/>
<path d="M9 8.71887H21" stroke="#7E7F7F" stroke-width="1.5" stroke-miterlimit="10" stroke-linecap="round" stroke-linejoin="round"/>
</svg>
