<svg width="150" height="91" viewBox="0 0 150 91" fill="none" xmlns="http://www.w3.org/2000/svg">
<rect y="0.375" width="40" height="40" rx="20" fill="#0EBE8D"/>
<path fill-rule="evenodd" clip-rule="evenodd" d="M18.0717 18.1018H20.8573V19.4893C21.2585 18.6913 22.2875 17.9743 23.8333 17.9743C26.7965 17.9743 27.5 19.5628 27.5 22.4773V27.875H24.5V23.141C24.5 21.4812 24.0988 20.5452 23.0773 20.5452C21.6605 20.5452 21.0717 21.554 21.0717 23.1403V27.875H18.0717V18.1018ZM12.9275 27.7475H15.9275V17.9743H12.9275V27.7475ZM16.3573 14.7875C16.3574 15.039 16.3075 15.2879 16.2105 15.5199C16.1136 15.752 15.9715 15.9624 15.7925 16.139C15.4298 16.4995 14.9389 16.7012 14.4275 16.7C13.917 16.6997 13.4272 16.4984 13.064 16.1398C12.8857 15.9625 12.744 15.7519 12.6473 15.5198C12.5505 15.2878 12.5004 15.0389 12.5 14.7875C12.5 14.2798 12.7025 13.7938 13.0648 13.4353C13.4277 13.0761 13.9177 12.8748 14.4283 12.875C14.9397 12.875 15.4302 13.0768 15.7925 13.4353C16.154 13.7938 16.3573 14.2798 16.3573 14.7875Z" fill="white"/>
<rect x="55" y="0.375" width="40" height="40" rx="20" fill="#0EBE8D"/>
<g clip-path="url(#clip0_225_6627)">
<path d="M82.1497 16.7059C82.1612 16.8658 82.1612 17.0257 82.1612 17.1856C82.1612 22.0625 78.4493 27.6818 71.665 27.6818C69.5749 27.6818 67.6333 27.0764 66 26.0257C66.297 26.0599 66.5825 26.0714 66.8909 26.0714C68.6154 26.0714 70.203 25.4889 71.4708 24.4952C69.849 24.461 68.4898 23.3988 68.0216 21.9369C68.25 21.9711 68.4784 21.9939 68.7183 21.9939C69.0495 21.9939 69.3807 21.9482 69.6891 21.8683C67.9987 21.5257 66.7309 20.0409 66.7309 18.2478V18.2021C67.222 18.4762 67.7931 18.6475 68.3984 18.6703C67.4048 18.0079 66.7538 16.8772 66.7538 15.598C66.7538 14.9127 66.9365 14.2846 67.2563 13.7363C69.0723 15.9749 71.802 17.4368 74.8629 17.5967C74.8058 17.3226 74.7715 17.0371 74.7715 16.7516C74.7715 14.7186 76.4162 13.0625 78.4606 13.0625C79.5228 13.0625 80.4822 13.5079 81.156 14.2275C81.9898 14.0676 82.7893 13.7592 83.4974 13.3366C83.2233 14.1932 82.6408 14.9128 81.8756 15.3696C82.618 15.2897 83.3375 15.0841 83.9999 14.7986C83.4975 15.5295 82.8693 16.1805 82.1497 16.7059Z" fill="white"/>
</g>
<rect y="50.375" width="40" height="40" rx="20" fill="#0EBE8D"/>
<path d="M29 70.375C29 65.425 24.95 61.375 20 61.375C15.05 61.375 11 65.425 11 70.375C11 74.875 14.2625 78.5875 18.5375 79.2625V72.9625H16.2875V70.375H18.5375V68.35C18.5375 66.1 19.8875 64.8625 21.9125 64.8625C22.925 64.8625 23.9375 65.0875 23.9375 65.0875V67.3375H22.8125C21.6875 67.3375 21.35 68.0125 21.35 68.6875V70.375H23.825L23.375 72.9625H21.2375V79.375C25.7375 78.7 29 74.875 29 70.375Z" fill="white"/>
<rect x="55" y="50.375" width="40" height="40" rx="20" fill="#0EBE8D"/>
<path d="M75 63.0015C77.3855 63.0015 77.7108 63.0015 78.6867 63.0015C79.5542 63.0015 79.988 63.2184 80.3133 63.3268C80.747 63.5437 81.0723 63.6521 81.3976 63.9774C81.7229 64.3027 81.9398 64.628 82.0482 65.0617C82.1566 65.387 82.2651 65.8208 82.3735 66.6883C82.3735 67.6642 82.3735 67.881 82.3735 70.375C82.3735 72.869 82.3735 73.0858 82.3735 74.0617C82.3735 74.9292 82.1566 75.363 82.0482 75.6883C81.8313 76.122 81.7229 76.4473 81.3976 76.7726C81.0723 77.0979 80.747 77.3148 80.3133 77.4232C79.988 77.5316 79.5542 77.6401 78.6867 77.7485C77.7108 77.7485 77.494 77.7485 75 77.7485C72.506 77.7485 72.2892 77.7485 71.3133 77.7485C70.4458 77.7485 70.012 77.5316 69.6867 77.4232C69.253 77.2063 68.9277 77.0979 68.6024 76.7726C68.2771 76.4473 68.0602 76.122 67.9518 75.6883C67.8434 75.363 67.7349 74.9292 67.6265 74.0617C67.6265 73.0858 67.6265 72.869 67.6265 70.375C67.6265 67.881 67.6265 67.6642 67.6265 66.6883C67.6265 65.8208 67.8434 65.387 67.9518 65.0617C68.1687 64.628 68.2771 64.3027 68.6024 63.9774C68.9277 63.6521 69.253 63.4352 69.6867 63.3268C70.012 63.2184 70.4458 63.1099 71.3133 63.0015C72.2892 63.0015 72.6145 63.0015 75 63.0015ZM75 61.375C72.506 61.375 72.2892 61.375 71.3133 61.375C70.3374 61.375 69.6867 61.5919 69.1446 61.8087C68.6024 62.0256 68.0602 62.3509 67.5181 62.8931C66.9759 63.4352 66.759 63.869 66.4337 64.5196C66.2169 65.0617 66.1084 65.7124 66 66.6883C66 67.6642 66 67.9895 66 70.375C66 72.869 66 73.0858 66 74.0617C66 75.0377 66.2169 75.6883 66.4337 76.2304C66.6506 76.7726 66.9759 77.3148 67.5181 77.8569C68.0602 78.3991 68.494 78.616 69.1446 78.9413C69.6867 79.1581 70.3374 79.2666 71.3133 79.375C72.2892 79.375 72.6145 79.375 75 79.375C77.3855 79.375 77.7108 79.375 78.6867 79.375C79.6627 79.375 80.3133 79.1581 80.8554 78.9413C81.3976 78.7244 81.9398 78.3991 82.4819 77.8569C83.0241 77.3148 83.241 76.881 83.5663 76.2304C83.7831 75.6883 83.8916 75.0377 84 74.0617C84 73.0858 84 72.7605 84 70.375C84 67.9895 84 67.6642 84 66.6883C84 65.7124 83.7831 65.0617 83.5663 64.5196C83.3494 63.9774 83.0241 63.4352 82.4819 62.8931C81.9398 62.3509 81.506 62.134 80.8554 61.8087C80.3133 61.5919 79.6627 61.4834 78.6867 61.375C77.7108 61.375 77.494 61.375 75 61.375Z" fill="white"/>
<path d="M75 65.7123C72.3976 65.7123 70.3373 67.7726 70.3373 70.375C70.3373 72.9774 72.3976 75.0377 75 75.0377C77.6024 75.0377 79.6627 72.9774 79.6627 70.375C79.6627 67.7726 77.6024 65.7123 75 65.7123ZM75 73.4111C73.3735 73.4111 71.9639 72.1099 71.9639 70.375C71.9639 68.7485 73.2651 67.3389 75 67.3389C76.6265 67.3389 78.0361 68.6401 78.0361 70.375C78.0361 72.0015 76.6265 73.4111 75 73.4111Z" fill="white"/>
<path d="M79.7711 66.6883C80.3699 66.6883 80.8554 66.2028 80.8554 65.6039C80.8554 65.0051 80.3699 64.5196 79.7711 64.5196C79.1722 64.5196 78.6867 65.0051 78.6867 65.6039C78.6867 66.2028 79.1722 66.6883 79.7711 66.6883Z" fill="white"/>
<rect x="110" y="50.375" width="40" height="40" rx="20" fill="#0EBE8D"/>
<path d="M122.035 69.3325C126.99 67.2156 130.295 65.8201 131.949 65.1458C136.669 63.2207 137.65 62.8863 138.29 62.8751C138.43 62.8728 138.745 62.907 138.949 63.069C139.121 63.2058 139.168 63.3906 139.191 63.5203C139.213 63.6501 139.241 63.9456 139.219 64.1765C138.963 66.8118 137.856 73.2072 137.293 76.1589C137.055 77.4078 136.585 77.8266 136.131 77.8676C135.144 77.9566 134.394 77.2279 133.438 76.6135C131.942 75.6519 131.097 75.0533 129.645 74.115C127.966 73.0307 129.054 72.4347 130.011 71.4607C130.261 71.2058 134.611 67.327 134.695 66.9751C134.705 66.9311 134.715 66.767 134.616 66.6804C134.516 66.5938 134.37 66.6234 134.264 66.647C134.114 66.6804 131.723 68.2292 127.093 71.2936C126.415 71.7503 125.8 71.9729 125.25 71.9612C124.643 71.9484 123.475 71.6247 122.607 71.3481C121.543 71.0088 120.696 70.8295 120.77 70.2533C120.808 69.9531 121.23 69.6462 122.035 69.3325Z" fill="white"/>
<defs>
<clipPath id="clip0_225_6627">
<rect width="18" height="18" fill="white" transform="translate(66 11.375)"/>
</clipPath>
</defs>
</svg>
