<svg width="29" height="29" viewBox="0 0 29 29" fill="none" xmlns="http://www.w3.org/2000/svg">
<path d="M17.8683 4.9371V9.37044H16.1183V4.9371C16.1183 4.6221 15.8383 4.47044 15.6516 4.47044C15.5933 4.47044 15.535 4.4821 15.4766 4.50544L6.22496 7.99377C5.60663 8.2271 5.20996 8.81044 5.20996 9.47544V10.2571C4.14829 11.0504 3.45996 12.3221 3.45996 13.7571V9.47544C3.45996 8.0871 4.31163 6.85044 5.60663 6.36044L14.87 2.86044C15.1266 2.7671 15.395 2.72044 15.6516 2.72044C16.8183 2.72044 17.8683 3.66544 17.8683 4.9371Z" fill="#0EBE8D"/>
<path d="M25.6264 17.2454V18.4121C25.6264 18.7271 25.3814 18.9838 25.0548 18.9954H23.3514C22.7331 18.9954 22.1731 18.5404 22.1264 17.9338C22.0914 17.5721 22.2314 17.2338 22.4648 17.0004C22.6748 16.7788 22.9664 16.6621 23.2814 16.6621H25.0431C25.3814 16.6738 25.6264 16.9304 25.6264 17.2454Z" fill="#0EBE8D"/>
<path d="M23.27 15.4371H24.46C25.1016 15.4371 25.6266 14.9121 25.6266 14.2704V13.7571C25.6266 11.3421 23.655 9.37043 21.24 9.37043H7.84663C6.85496 9.37043 5.94496 9.6971 5.20996 10.2571C4.14829 11.0504 3.45996 12.3221 3.45996 13.7571V21.6088C3.45996 24.0238 5.43163 25.9954 7.84663 25.9954H21.24C23.655 25.9954 25.6266 24.0238 25.6266 21.6088V21.3871C25.6266 20.7454 25.1016 20.2204 24.46 20.2204H23.445C22.325 20.2204 21.2516 19.5321 20.96 18.4471C20.715 17.5604 21.0066 16.7088 21.59 16.1371C22.0216 15.6938 22.6166 15.4371 23.27 15.4371ZM16.8766 15.2038H8.70996C8.23163 15.2038 7.83496 14.8071 7.83496 14.3288C7.83496 13.8504 8.23163 13.4538 8.70996 13.4538H16.8766C17.355 13.4538 17.7516 13.8504 17.7516 14.3288C17.7516 14.8071 17.355 15.2038 16.8766 15.2038Z" fill="#0EBE8D"/>
</svg>
