<svg width="24" height="25" viewBox="0 0 24 25" fill="none" xmlns="http://www.w3.org/2000/svg">
<path d="M7.99983 22.7189H15.9998C20.0198 22.7189 20.7398 21.1089 20.9498 19.1489L21.6998 11.1489C21.9698 8.70887 21.2698 6.71887 16.9998 6.71887H6.99983C2.72983 6.71887 2.02983 8.70887 2.29983 11.1489L3.04983 19.1489C3.25983 21.1089 3.97983 22.7189 7.99983 22.7189Z" stroke="#7E7F7F" stroke-width="1.5" stroke-miterlimit="10" stroke-linecap="round" stroke-linejoin="round"/>
<path d="M8 6.71887V5.91887C8 4.14887 8 2.71887 11.2 2.71887H12.8C16 2.71887 16 4.14887 16 5.91887V6.71887" stroke="#7E7F7F" stroke-width="1.5" stroke-miterlimit="10" stroke-linecap="round" stroke-linejoin="round"/>
<path d="M14 13.7189V14.7189C14 14.7289 14 14.7289 14 14.7389C14 15.8289 13.99 16.7189 12 16.7189C10.02 16.7189 10 15.8389 10 14.7489V13.7189C10 12.7189 10 12.7189 11 12.7189H13C14 12.7189 14 12.7189 14 13.7189Z" stroke="#7E7F7F" stroke-width="1.5" stroke-miterlimit="10" stroke-linecap="round" stroke-linejoin="round"/>
<path d="M21.65 11.7189C19.34 13.3989 16.7 14.3989 14 14.7389" stroke="#7E7F7F" stroke-width="1.5" stroke-miterlimit="10" stroke-linecap="round" stroke-linejoin="round"/>
<path d="M2.62012 11.9889C4.87012 13.5289 7.41012 14.4589 10.0001 14.7489" stroke="#7E7F7F" stroke-width="1.5" stroke-miterlimit="10" stroke-linecap="round" stroke-linejoin="round"/>
</svg>
