<svg width="24" height="25" viewBox="0 0 24 25" fill="none" xmlns="http://www.w3.org/2000/svg">
<path d="M5.00195 15.71C2.79195 15.71 1.00195 17.5 1.00195 19.71C1.00195 20.46 1.21195 21.17 1.58195 21.77C2.27195 22.93 3.54195 23.71 5.00195 23.71C6.46195 23.71 7.73195 22.93 8.42195 21.77C8.79195 21.17 9.00195 20.46 9.00195 19.71C9.00195 17.5 7.21195 15.71 5.00195 15.71ZM6.49195 20.44H5.75195V21.22C5.75195 21.63 5.41195 21.97 5.00195 21.97C4.59195 21.97 4.25195 21.63 4.25195 21.22V20.44H3.51195C3.10195 20.44 2.76195 20.1 2.76195 19.69C2.76195 19.28 3.10195 18.94 3.51195 18.94H4.25195V18.23C4.25195 17.82 4.59195 17.48 5.00195 17.48C5.41195 17.48 5.75195 17.82 5.75195 18.23V18.94H6.49195C6.90195 18.94 7.24195 19.28 7.24195 19.69C7.24195 20.1 6.91195 20.44 6.49195 20.44Z" fill="#FF6A24"/>
<path d="M21.502 13.21H19.002C17.902 13.21 17.002 14.11 17.002 15.21C17.002 16.31 17.902 17.21 19.002 17.21H21.502C21.782 17.21 22.002 16.99 22.002 16.71V13.71C22.002 13.43 21.782 13.21 21.502 13.21Z" fill="#FF6A24"/>
<path d="M16.5322 6.10996C16.8322 6.39996 16.5822 6.84996 16.1622 6.84996L7.88216 6.83996C7.40216 6.83996 7.16216 6.25996 7.50216 5.91996L9.25216 4.15996C10.7322 2.68996 13.1222 2.68996 14.6022 4.15996L16.4922 6.06996C16.5022 6.07996 16.5222 6.09996 16.5322 6.10996Z" fill="#FF6A24"/>
<path d="M21.8718 19.37C21.2618 21.43 19.5018 22.71 17.1018 22.71H10.6018C10.2118 22.71 9.96182 22.28 10.1218 21.92C10.4218 21.22 10.6118 20.43 10.6118 19.71C10.6118 16.68 8.14182 14.21 5.11182 14.21C4.35182 14.21 3.61182 14.37 2.93182 14.67C2.56182 14.83 2.11182 14.58 2.11182 14.18V12.71C2.11182 9.98996 3.75182 8.08996 6.30182 7.76996C6.55182 7.72996 6.82182 7.70996 7.10182 7.70996H17.1018C17.3618 7.70996 17.6118 7.71996 17.8518 7.75996C19.8718 7.98996 21.3318 9.21996 21.8718 11.05C21.9718 11.38 21.7318 11.71 21.3918 11.71H19.1018C16.9318 11.71 15.2118 13.69 15.6818 15.94C16.0118 17.58 17.5318 18.71 19.2018 18.71H21.3918C21.7418 18.71 21.9718 19.05 21.8718 19.37Z" fill="#FF6A24"/>
</svg>
