<svg width="30" height="30" viewBox="0 0 30 30" fill="none" xmlns="http://www.w3.org/2000/svg">
    <path d="M6.54329 17.4167C3.87288 17.4167 1.70996 19.5796 1.70996 22.25C1.70996 24.9204 3.87288 27.0833 6.54329 27.0833C9.21371 27.0833 11.3766 24.9204 11.3766 22.25C11.3766 19.5796 9.21371 17.4167 6.54329 17.4167ZM7.75163 21.8633C7.75163 22.6004 7.35288 23.3012 6.72454 23.6758L5.80621 24.2317C5.66121 24.3283 5.49204 24.3646 5.33496 24.3646C5.03288 24.3646 4.73079 24.2075 4.56163 23.9296C4.30788 23.5067 4.44079 22.9387 4.87579 22.685L5.79413 22.1292C5.87871 22.0808 5.93913 21.9721 5.93913 21.8754V20.7517C5.93913 20.2442 6.34996 19.8333 6.84538 19.8333C7.34079 19.8333 7.75163 20.2442 7.75163 20.7396V21.8633Z" fill="#0385FF"/>
    <path d="M21.0439 5.33334H8.96061C5.33561 5.33334 2.91895 7.14584 2.91895 11.375V15.6767C2.91895 16.1238 3.37811 16.4017 3.77686 16.2204C4.96103 15.6767 6.32645 15.4713 7.76436 15.725C10.9423 16.2929 13.2744 19.2413 13.1898 22.4675C13.1777 22.975 13.1052 23.4704 12.9723 23.9538C12.8756 24.3283 13.1777 24.6788 13.5644 24.6788H21.0439C24.6689 24.6788 27.0856 22.8663 27.0856 18.6371V11.375C27.0856 7.14584 24.6689 5.33334 21.0439 5.33334ZM15.0023 18.0208C13.3348 18.0208 11.9814 16.6675 11.9814 15C11.9814 13.3325 13.3348 11.9792 15.0023 11.9792C16.6698 11.9792 18.0231 13.3325 18.0231 15C18.0231 16.6675 16.6698 18.0208 15.0023 18.0208ZM23.7627 17.4167C23.7627 17.9121 23.3519 18.3229 22.8564 18.3229C22.361 18.3229 21.9502 17.9121 21.9502 17.4167V12.5833C21.9502 12.0879 22.361 11.6771 22.8564 11.6771C23.3519 11.6771 23.7627 12.0879 23.7627 12.5833V17.4167Z" fill="#0385FF"/>
</svg>
