<svg width="30" height="30" viewBox="0 0 30 30" fill="none" xmlns="http://www.w3.org/2000/svg">
<path d="M15.0003 2.91666C11.8345 2.91666 9.26074 5.49041 9.26074 8.65624C9.26074 11.7617 11.6895 14.275 14.8553 14.3837C14.952 14.3717 15.0487 14.3717 15.1212 14.3837C15.1453 14.3837 15.1574 14.3837 15.1816 14.3837C15.1937 14.3837 15.1937 14.3837 15.2057 14.3837C18.2991 14.275 20.7278 11.7617 20.7399 8.65624C20.7399 5.49041 18.1662 2.91666 15.0003 2.91666Z" fill="#F04438"/>
<path d="M21.1382 17.5979C17.7669 15.3504 12.269 15.3504 8.87358 17.5979C7.339 18.625 6.49316 20.0146 6.49316 21.5008C6.49316 22.9871 7.339 24.3646 8.8615 25.3796C10.5532 26.5154 12.7765 27.0833 14.9998 27.0833C17.2232 27.0833 19.4465 26.5154 21.1382 25.3796C22.6607 24.3525 23.5065 22.975 23.5065 21.4767C23.4944 19.9904 22.6607 18.6129 21.1382 17.5979ZM17.344 22.5642C17.6944 22.9146 17.6944 23.4946 17.344 23.845C17.1627 24.0263 16.9332 24.1108 16.7036 24.1108C16.474 24.1108 16.2444 24.0263 16.0632 23.845L14.9998 22.7817L13.9365 23.845C13.7552 24.0263 13.5257 24.1108 13.2961 24.1108C13.0665 24.1108 12.8369 24.0263 12.6557 23.845C12.3052 23.4946 12.3052 22.9146 12.6557 22.5642L13.719 21.5008L12.6557 20.4375C12.3052 20.0871 12.3052 19.5071 12.6557 19.1567C13.0061 18.8063 13.5861 18.8063 13.9365 19.1567L14.9998 20.22L16.0632 19.1567C16.4136 18.8063 16.9936 18.8063 17.344 19.1567C17.6944 19.5071 17.6944 20.0871 17.344 20.4375L16.2807 21.5008L17.344 22.5642Z" fill="#F04438"/>
</svg>
