<svg width="24" height="25" viewBox="0 0 24 25" fill="none" xmlns="http://www.w3.org/2000/svg">
<path d="M22 12.7189V17.7189C22 20.7189 20 22.7189 17 22.7189H7C4 22.7189 2 20.7189 2 17.7189V12.7189C2 9.99887 3.64 8.09887 6.19 7.77887C6.45 7.73887 6.72 7.71887 7 7.71887H17C17.26 7.71887 17.51 7.72886 17.75 7.76886C20.33 8.06886 22 9.97887 22 12.7189Z" stroke="#7E7F7F" stroke-width="1.5" stroke-linecap="round" stroke-linejoin="round"/>
<path d="M17.7514 7.76887C17.5114 7.72887 17.2614 7.71888 17.0014 7.71888H7.00141C6.72141 7.71888 6.45141 7.73888 6.19141 7.77888C6.33141 7.49888 6.53141 7.23888 6.77141 6.99888L10.0214 3.73887C11.3914 2.37887 13.6114 2.37887 14.9814 3.73887L16.7314 5.50889C17.3714 6.13889 17.7114 6.93887 17.7514 7.76887Z" stroke="#7E7F7F" stroke-width="1.5" stroke-linecap="round" stroke-linejoin="round"/>
<path d="M22 13.2189H19C17.9 13.2189 17 14.1189 17 15.2189C17 16.3189 17.9 17.2189 19 17.2189H22" stroke="#7E7F7F" stroke-width="1.5" stroke-linecap="round" stroke-linejoin="round"/>
</svg>
