<svg width="24" height="25" viewBox="0 0 24 25" fill="none" xmlns="http://www.w3.org/2000/svg">
<path d="M3 9.82887V15.5989C3 17.7189 3 17.7189 5 19.0689L10.5 22.2489C11.33 22.7289 12.68 22.7289 13.5 22.2489L19 19.0689C21 17.7189 21 17.7189 21 15.6089V9.82887C21 7.71887 21 7.71887 19 6.36887L13.5 3.18887C12.68 2.70887 11.33 2.70887 10.5 3.18887L5 6.36887C3 7.71887 3 7.71887 3 9.82887Z" stroke="#7D7D87" stroke-width="1.5" stroke-linecap="round" stroke-linejoin="round"/>
<path d="M12 15.7189C13.6569 15.7189 15 14.3757 15 12.7189C15 11.062 13.6569 9.71887 12 9.71887C10.3431 9.71887 9 11.062 9 12.7189C9 14.3757 10.3431 15.7189 12 15.7189Z" stroke="#7D7D87" stroke-width="1.5" stroke-linecap="round" stroke-linejoin="round"/>
</svg>
