<svg width="30" height="30" viewBox="0 0 30 30" fill="none" xmlns="http://www.w3.org/2000/svg">
    <path d="M20.1351 27.6875C21.3029 27.6875 22.2497 26.7408 22.2497 25.5729C22.2497 24.4051 21.3029 23.4583 20.1351 23.4583C18.9672 23.4583 18.0205 24.4051 18.0205 25.5729C18.0205 26.7408 18.9672 27.6875 20.1351 27.6875Z" fill="#7838D6"/>
    <path d="M10.4691 27.6875C11.6369 27.6875 12.5837 26.7408 12.5837 25.5729C12.5837 24.4051 11.6369 23.4583 10.4691 23.4583C9.30122 23.4583 8.35449 24.4051 8.35449 25.5729C8.35449 26.7408 9.30122 27.6875 10.4691 27.6875Z" fill="#7838D6"/>
    <path d="M6.34866 5.26082L6.10699 8.22124C6.05866 8.78916 6.50574 9.26041 7.07366 9.26041H25.5732C26.0807 9.26041 26.5037 8.87374 26.5399 8.36624C26.697 6.22749 25.0657 4.48749 22.927 4.48749H8.07658C7.95574 3.95582 7.71408 3.44832 7.33949 3.02541C6.73533 2.38499 5.88949 2.01041 5.01949 2.01041H2.91699C2.42158 2.01041 2.01074 2.42124 2.01074 2.91666C2.01074 3.41207 2.42158 3.82291 2.91699 3.82291H5.01949C5.39408 3.82291 5.74449 3.97999 5.99824 4.24582C6.25199 4.52374 6.37283 4.88624 6.34866 5.26082Z" fill="#7838D6"/>
    <path d="M25.2827 11.0729H6.74682C6.23932 11.0729 5.82849 11.4596 5.78015 11.955L5.34516 17.2112C5.17599 19.2775 6.79516 21.0417 8.86141 21.0417H22.2981C24.1106 21.0417 25.7056 19.5554 25.8385 17.7429L26.2372 12.1C26.2856 11.5442 25.8506 11.0729 25.2827 11.0729Z" fill="#7838D6"/>
</svg>
