<svg width="160" height="173" viewBox="0 0 160 173" fill="none" xmlns="http://www.w3.org/2000/svg">
<path d="M128.667 0.00522995C128.667 2.16041 128.269 4.29451 127.497 6.28563C126.725 8.27676 125.594 10.086 124.167 11.6099C122.741 13.1339 121.047 14.3427 119.183 15.1674C117.32 15.9922 115.322 16.4167 113.305 16.4167C117.379 16.4167 121.286 18.1458 124.167 21.2235C127.048 24.3012 128.667 28.4755 128.667 32.8281C128.667 28.4756 130.285 24.3012 133.166 21.2235C136.047 18.1458 139.954 16.4167 144.028 16.4167C139.954 16.4167 136.047 14.6877 133.166 11.6099C130.285 8.53219 128.667 4.35781 128.667 0.00522995Z" fill="#DEDDF9"/>
<path d="M81.2994 51.849C81.2994 54.0042 80.9021 56.1383 80.1301 58.1294C79.3581 60.1205 78.2265 61.9297 76.8 63.4537C75.3735 64.9776 73.6801 66.1864 71.8163 67.0112C69.9525 67.836 67.9549 68.2604 65.9375 68.2604C70.0117 68.2604 73.9191 69.9895 76.8 73.0673C79.6809 76.145 81.2994 80.3193 81.2994 84.6719C81.2994 80.3193 82.9179 76.145 85.7988 73.0673C88.6797 69.9895 92.587 68.2604 96.6612 68.2604C92.587 68.2604 88.6797 66.5314 85.7988 63.4537C82.9179 60.3759 81.2994 56.2016 81.2994 51.849Z" fill="#DEDDF9"/>
<path d="M144.026 76.8099C144.026 78.9651 143.629 81.0992 142.857 83.0903C142.085 85.0814 140.953 86.8907 139.527 88.4146C138.1 89.9386 136.407 91.1474 134.543 91.9721C132.679 92.7969 130.681 93.2214 128.664 93.2214C132.738 93.2214 136.646 94.9505 139.527 98.0282C142.407 101.106 144.026 105.28 144.026 109.633C144.026 105.28 145.644 101.106 148.525 98.0282C151.406 94.9505 155.314 93.2214 159.388 93.2214C155.314 93.2213 151.406 91.4924 148.525 88.4146C145.644 85.3369 144.026 81.1625 144.026 76.8099Z" fill="#DEDDF9"/>
<path d="M96.6588 124.177C96.6588 126.332 96.2615 128.466 95.4894 130.458C94.7174 132.449 93.5858 134.258 92.1594 135.782C90.7329 137.306 89.0394 138.515 87.1756 139.339C85.3118 140.164 83.3142 140.589 81.2969 140.589C85.3711 140.589 89.2784 142.318 92.1594 145.395C95.0403 148.473 96.6588 152.647 96.6588 157C96.6588 152.647 98.2772 148.473 101.158 145.395C104.039 142.318 107.946 140.589 112.021 140.589C107.946 140.589 104.039 138.86 101.158 135.782C98.2772 132.704 96.6588 128.53 96.6588 124.177Z" fill="#DEDDF9"/>
<path d="M30.7291 16.0052C30.7291 18.1604 30.3318 20.2945 29.5598 22.2856C28.7878 24.2768 27.6562 26.086 26.2297 27.6099C24.8032 29.1339 23.1097 30.3427 21.246 31.1674C19.3822 31.9922 17.3845 32.4167 15.3672 32.4167C19.4414 32.4167 23.3488 34.1458 26.2297 37.2235C29.1106 40.3012 30.7291 44.4755 30.7291 48.8281C30.7291 44.4756 32.3475 40.3012 35.2284 37.2235C38.1093 34.1458 42.0167 32.4167 46.0909 32.4167C42.0167 32.4167 38.1094 30.6877 35.2284 27.6099C32.3475 24.5322 30.7291 20.3578 30.7291 16.0052Z" fill="#DEDDF9"/>
<path d="M46.0885 92.8099C46.0885 94.9651 45.6911 97.0992 44.9191 99.0903C44.1471 101.081 43.0155 102.891 41.589 104.415C40.1626 105.939 38.4691 107.147 36.6053 107.972C34.7415 108.797 32.7439 109.221 30.7266 109.221C34.8008 109.221 38.7081 110.95 41.589 114.028C44.47 117.106 46.0885 121.28 46.0885 125.633C46.0885 121.28 47.7069 117.106 50.5878 114.028C53.4687 110.95 57.3761 109.221 61.4503 109.221C57.3761 109.221 53.4687 107.492 50.5878 104.415C47.7069 101.337 46.0885 97.1625 46.0885 92.8099Z" fill="#DEDDF9"/>
<path d="M2.56504 140.177C2.56504 142.332 2.16771 144.466 1.3957 146.458C0.623693 148.449 -0.507905 150.258 -1.93439 151.782C-3.36087 153.306 -5.05432 154.515 -6.91811 155.339C-8.7819 156.164 -10.7795 156.589 -12.7969 156.589C-8.72265 156.589 -4.8153 158.318 -1.93439 161.395C0.946525 164.473 2.56504 168.647 2.56504 173C2.56505 168.647 4.18348 164.473 7.06438 161.395C9.94529 158.318 13.8527 156.589 17.9269 156.589C13.8526 156.589 9.94529 154.86 7.06438 151.782C4.18348 148.704 2.56503 144.53 2.56504 140.177Z" fill="#DEDDF9"/>
</svg>
