<svg width="104" height="173" viewBox="0 0 104 173" fill="none" xmlns="http://www.w3.org/2000/svg">
<path d="M113.299 51.849C113.299 54.0042 112.902 56.1383 112.13 58.1294C111.358 60.1205 110.226 61.9297 108.8 63.4537C107.374 64.9776 105.68 66.1864 103.816 67.0112C101.952 67.836 99.9549 68.2604 97.9375 68.2604C102.012 68.2604 105.919 69.9895 108.8 73.0673C111.681 76.145 113.299 80.3193 113.299 84.6719C113.299 80.3193 114.918 76.145 117.799 73.0673C120.68 69.9895 124.587 68.2604 128.661 68.2604C124.587 68.2604 120.68 66.5314 117.799 63.4537C114.918 60.3759 113.299 56.2016 113.299 51.849Z" fill="#DEDDF9"/>
<path d="M62.7291 16.0052C62.7291 18.1604 62.3318 20.2945 61.5598 22.2856C60.7878 24.2768 59.6562 26.086 58.2297 27.6099C56.8032 29.1339 55.1097 30.3427 53.246 31.1674C51.3822 31.9922 49.3845 32.4167 47.3672 32.4167C51.4414 32.4167 55.3488 34.1458 58.2297 37.2235C61.1106 40.3012 62.7291 44.4755 62.7291 48.8281C62.7291 44.4756 64.3475 40.3012 67.2284 37.2235C70.1093 34.1458 74.0167 32.4167 78.0909 32.4167C74.0167 32.4167 70.1094 30.6877 67.2284 27.6099C64.3475 24.5322 62.7291 20.3578 62.7291 16.0052Z" fill="#DEDDF9"/>
<path d="M15.3619 67.849C15.3619 70.0042 14.9646 72.1383 14.1926 74.1294C13.4206 76.1205 12.289 77.9297 10.8625 79.4537C9.436 80.9776 7.74256 82.1864 5.87876 83.0112C4.01497 83.836 2.01735 84.2604 0 84.2604C4.07423 84.2604 7.98157 85.9895 10.8625 89.0673C13.7434 92.145 15.3619 96.3193 15.3619 100.672C15.3619 96.3193 16.9804 92.145 19.8613 89.0673C22.7422 85.9895 26.6495 84.2604 30.7237 84.2604C26.6495 84.2604 22.7422 82.5314 19.8613 79.4537C16.9804 76.3759 15.3619 72.2016 15.3619 67.849Z" fill="#DEDDF9"/>
<path d="M78.0885 92.8099C78.0885 94.9651 77.6911 97.0992 76.9191 99.0903C76.1471 101.081 75.0155 102.891 73.589 104.415C72.1626 105.939 70.4691 107.147 68.6053 107.972C66.7415 108.797 64.7439 109.221 62.7266 109.221C66.8008 109.221 70.7081 110.95 73.589 114.028C76.47 117.106 78.0885 121.28 78.0885 125.633C78.0885 121.28 79.7069 117.106 82.5878 114.028C85.4687 110.95 89.3761 109.221 93.4503 109.221C89.3761 109.221 85.4687 107.492 82.5878 104.415C79.7069 101.337 78.0885 97.1625 78.0885 92.8099Z" fill="#DEDDF9"/>
<path d="M34.565 140.177C34.565 142.332 34.1677 144.466 33.3957 146.458C32.6237 148.449 31.4921 150.258 30.0656 151.782C28.6391 153.306 26.9457 154.515 25.0819 155.339C23.2181 156.164 21.2205 156.589 19.2031 156.589C23.2774 156.589 27.1847 158.318 30.0656 161.395C32.9465 164.473 34.565 168.647 34.565 173C34.565 168.647 36.1835 164.473 39.0644 161.395C41.9453 158.318 45.8527 156.589 49.9269 156.589C45.8526 156.589 41.9453 154.86 39.0644 151.782C36.1835 148.704 34.565 144.53 34.565 140.177Z" fill="#DEDDF9"/>
</svg>
