<svg width="93" height="93" viewBox="0 0 93 93" fill="none" xmlns="http://www.w3.org/2000/svg">
<path d="M65.4208 92.3906L64.0321 85.1275C63.1063 84.724 62.2376 84.2995 61.426 83.854C60.6144 83.4085 59.7858 82.8646 58.9403 82.2222L52.2283 84.4012L47.5994 76.1696L52.9226 71.3275C52.7683 70.359 52.6912 69.3099 52.6912 68.1801C52.6912 67.0503 52.7683 66.0012 52.9226 65.0327L47.5994 60.1906L52.2283 51.959L58.9403 54.138C59.7889 53.4924 60.6175 52.9485 61.426 52.5062C62.2345 52.064 63.1032 51.6395 64.0321 51.2327L65.4208 43.9696H74.6786L76.0673 51.2327C76.9931 51.6362 77.8618 52.0607 78.6734 52.5062C79.485 52.9517 80.3136 53.4956 81.1591 54.138L87.8711 51.959L92.5 60.1906L87.1767 65.0327C87.331 66.0012 87.4082 67.0503 87.4082 68.1801C87.4082 69.3099 87.331 70.359 87.1767 71.3275L92.5 76.1696L87.8711 84.4012L81.1591 82.2222C80.3105 82.8678 79.4819 83.4134 78.6734 83.8588C77.8649 84.3043 76.9962 84.7272 76.0673 85.1275L74.6786 92.3906H65.4208ZM9.75786 87.5485C7.21195 87.5485 5.03327 86.5995 3.22181 84.7014C1.41036 82.8033 0.503086 80.5242 0.5 77.8643V10.0748C0.5 7.41168 1.40727 5.13105 3.22181 3.23295C5.03635 1.33484 7.21504 0.387405 9.75786 0.390633H74.5629C77.1088 0.390633 79.289 1.33969 81.1036 3.23779C82.9181 5.1359 83.8238 7.41491 83.8208 10.0748V37.4327C82.3549 36.7064 80.8505 36.1205 79.3075 35.6751C77.7646 35.2296 76.183 34.8874 74.5629 34.6485V10.0748H9.75786V53.6538H29.1994C29.8937 55.8327 31.0509 57.7292 32.6711 59.3433C34.2912 60.9573 36.1042 62.0871 38.1101 62.7327C37.4157 67.0906 37.5129 71.4082 38.4017 75.6854C39.2904 79.9626 40.9661 83.9169 43.4287 87.5485H9.75786ZM70.0497 77.8643C72.5956 77.8643 74.7758 76.9153 76.5904 75.0172C78.4049 73.1191 79.3106 70.84 79.3075 68.1801C79.3075 65.5169 78.4018 63.2363 76.5904 61.3382C74.7789 59.4401 72.5987 58.4927 70.0497 58.4959C67.5038 58.4959 65.3251 59.4449 63.5136 61.3431C61.7022 63.2412 60.7934 65.5202 60.7872 68.1801C60.7872 70.8433 61.6945 73.1239 63.509 75.022C65.3235 76.9201 67.5069 77.8675 70.0497 77.8643Z" fill="#0EBE8D"/>
</svg>
