<svg width="93" height="93" viewBox="0 0 93 93" fill="none" xmlns="http://www.w3.org/2000/svg">
<path d="M45.7355 0.390625C42.1677 0.451368 39.6056 1.03855 37.9055 2.09142L14.6071 12.6404L1.65288 27.5406C-1.07684 31.1042 0.862703 37.9884 9.3871 33.5744L18.7256 23.1672C30.5784 14.5235 54.7628 18.49 43.2931 35.8422C37.6661 45.885 40.3 50.7849 47.5553 52.8501L50.8597 43.4553C56.5826 32.562 67.262 30.598 66.831 21.8106L92.5 23.3696L92.2606 0.674091L45.7355 0.390625ZM32.7813 21.3246C28.6149 21.2639 24.5203 22.7217 21.5511 24.8275L12.1887 35.2347C14.7508 36.9558 17.3368 36.0244 19.8989 33.9389C22.916 35.2347 25.2626 33.2302 27.1782 29.2212C27.9684 26.4878 29.1417 24.5642 32.7813 21.3246ZM13.7211 40.7623C13.6254 40.7623 13.5056 40.7623 13.4098 40.7826C12.6197 40.9243 11.6858 41.633 11.0632 43.2528C10.4167 44.8726 10.2731 47.1808 10.8477 49.651C11.4224 52.101 12.6197 54.1865 13.9606 55.4823C15.2536 56.7579 16.4509 57.1224 17.241 56.9807C18.0552 56.8592 18.9651 56.1303 19.5876 54.5307C20.2342 52.9109 20.4018 50.5824 19.8271 48.1325C19.2285 45.6623 18.0312 43.5767 16.7143 42.3011C15.5649 41.1673 14.5113 40.7623 13.7211 40.7623ZM33.4997 62.3868C31.608 62.407 29.2375 62.9132 26.9148 63.8648C24.2569 64.9785 22.1737 66.5173 21.0483 67.9346C19.9229 69.3317 19.8271 70.3846 20.1863 71.0123C20.5454 71.6197 21.599 72.2069 23.6104 72.2878C25.6218 72.3891 28.3275 71.9234 30.9854 70.8098C33.6433 69.6962 35.7265 68.1776 36.8519 66.7603C37.9774 65.3632 38.0731 64.29 37.714 63.6826C37.3548 63.0549 36.3012 62.488 34.2898 62.407C34.0264 62.3868 33.787 62.3868 33.4997 62.3868ZM10.1294 81.7435C9.00398 81.7637 7.97435 81.9055 7.06444 82.1282C5.02912 82.6344 3.85582 83.5455 3.4727 84.6186C3.06564 85.712 3.4727 87.0079 4.83756 88.4049C6.22637 89.7818 8.54903 91.0979 11.4224 91.8268C14.2719 92.5557 17.0495 92.5355 19.1087 92.009C21.168 91.5028 22.3413 90.5917 22.7244 89.5186C23.1076 88.4252 22.7244 87.1293 21.3356 85.7323C19.9708 84.3554 17.6481 83.0393 14.7747 82.3104C13.1465 81.9055 11.5661 81.7232 10.1294 81.7435Z" fill="#0EBE8D"/>
</svg>
