<svg width="93" height="93" viewBox="0 0 93 93" fill="none" xmlns="http://www.w3.org/2000/svg">
<path d="M36.2778 0.390625H5.61111C4.25556 0.390625 2.95553 0.929115 1.99701 1.88763C1.03849 2.84615 0.5 4.14619 0.5 5.50174V36.1684C0.5 37.524 1.03849 38.824 1.99701 39.7825C2.95553 40.741 4.25556 41.2795 5.61111 41.2795H36.2778C37.6333 41.2795 38.9334 40.741 39.8919 39.7825C40.8504 38.824 41.3889 37.524 41.3889 36.1684V5.50174C41.3889 4.14619 40.8504 2.84615 39.8919 1.88763C38.9334 0.929115 37.6333 0.390625 36.2778 0.390625ZM87.3889 0.390625H56.7222C55.3667 0.390625 54.0666 0.929115 53.1081 1.88763C52.1496 2.84615 51.6111 4.14619 51.6111 5.50174V36.1684C51.6111 37.524 52.1496 38.824 53.1081 39.7825C54.0666 40.741 55.3667 41.2795 56.7222 41.2795H87.3889C88.7444 41.2795 90.0445 40.741 91.003 39.7825C91.9615 38.824 92.5 37.524 92.5 36.1684V5.50174C92.5 4.14619 91.9615 2.84615 91.003 1.88763C90.0445 0.929115 88.7444 0.390625 87.3889 0.390625ZM36.2778 51.5017H5.61111C4.25556 51.5017 2.95553 52.0402 1.99701 52.9987C1.03849 53.9573 0.5 55.2573 0.5 56.6128V87.2795C0.5 88.6351 1.03849 89.9351 1.99701 90.8936C2.95553 91.8521 4.25556 92.3906 5.61111 92.3906H36.2778C37.6333 92.3906 38.9334 91.8521 39.8919 90.8936C40.8504 89.9351 41.3889 88.6351 41.3889 87.2795V56.6128C41.3889 55.2573 40.8504 53.9573 39.8919 52.9987C38.9334 52.0402 37.6333 51.5017 36.2778 51.5017ZM77.1667 56.6128H66.9444V66.8351H56.7222V77.0573H66.9444V87.2795H77.1667V77.0573H87.3889V66.8351H77.1667V56.6128Z" fill="#0EBE8D"/>
</svg>
