<svg width="19" height="18" viewBox="0 0 19 18" fill="none" xmlns="http://www.w3.org/2000/svg">
<path fill-rule="evenodd" clip-rule="evenodd" d="M18.5 9C18.5 13.9706 14.4706 18 9.5 18C4.52944 18 0.5 13.9706 0.5 9C0.5 4.02944 4.52944 0 9.5 0C14.4706 0 18.5 4.02944 18.5 9ZM13.6716 11.7574C14.1951 10.967 14.5 10.0191 14.5 9C14.5 6.23858 12.2614 4 9.5 4C8.48092 4 7.53304 4.30488 6.74261 4.8284L13.6716 11.7574ZM5.3284 6.24261L12.2574 13.1716C11.467 13.6951 10.5191 14 9.5 14C6.73858 14 4.5 11.7614 4.5 9C4.5 7.98092 4.80488 7.03304 5.3284 6.24261ZM9.5 2C5.63401 2 2.5 5.13401 2.5 9C2.5 12.866 5.63401 16 9.5 16C13.366 16 16.5 12.866 16.5 9C16.5 5.13401 13.366 2 9.5 2Z" fill="#F04438"/>
</svg>
