<svg width="24" height="25" viewBox="0 0 24 25" fill="none" xmlns="http://www.w3.org/2000/svg">
<path d="M14.2617 16.7169H9.26172" stroke="#7E7F7F" stroke-width="1.5" stroke-miterlimit="10" stroke-linecap="round" stroke-linejoin="round"/>
<path d="M12.66 3.23701L12.63 3.30701L9.72996 10.037H6.87996C6.19996 10.037 5.54996 10.177 4.95996 10.427L6.70996 6.24701L6.74996 6.14701L6.81996 5.98701C6.83996 5.92701 6.85996 5.86701 6.88996 5.81701C8.19996 2.78701 9.67996 2.09701 12.66 3.23701Z" stroke="#7E7F7F" stroke-width="1.5" stroke-linecap="round" stroke-linejoin="round"/>
<path d="M18.05 10.237C17.6 10.097 17.12 10.037 16.64 10.037H9.72998L12.63 3.30701L12.66 3.23701C12.81 3.28701 12.95 3.35701 13.1 3.41701L15.31 4.34701C16.54 4.85701 17.4 5.38701 17.92 6.02701C18.02 6.14701 18.1 6.25701 18.17 6.38701C18.26 6.52701 18.33 6.66701 18.37 6.81701C18.41 6.90701 18.44 6.99701 18.46 7.07701C18.73 7.91701 18.57 8.94701 18.05 10.237Z" stroke="#7E7F7F" stroke-width="1.5" stroke-linecap="round" stroke-linejoin="round"/>
<path d="M21.5217 14.9172V16.8672C21.5217 17.0672 21.5117 17.2672 21.5017 17.4672C21.3117 20.9572 19.3617 22.7172 15.6617 22.7172H7.86172C7.62172 22.7172 7.38172 22.6972 7.15172 22.6672C3.97172 22.4572 2.27172 20.7572 2.06172 17.5772C2.03172 17.3472 2.01172 17.1072 2.01172 16.8672V14.9172C2.01172 12.9072 3.23172 11.1772 4.97172 10.4272C5.57172 10.1772 6.21172 10.0372 6.89172 10.0372H16.6517C17.1417 10.0372 17.6217 10.1072 18.0617 10.2372C20.0517 10.8472 21.5217 12.7072 21.5217 14.9172Z" stroke="#7E7F7F" stroke-width="1.5" stroke-linecap="round" stroke-linejoin="round"/>
<path d="M6.71 6.24701L4.96 10.427C3.22 11.177 2 12.907 2 14.917V11.987C2 9.14701 4.02 6.77701 6.71 6.24701Z" stroke="#7E7F7F" stroke-width="1.5" stroke-linecap="round" stroke-linejoin="round"/>
<path d="M21.5186 11.9865V14.9165C21.5186 12.7165 20.0586 10.8465 18.0586 10.2465C18.5786 8.94653 18.7286 7.92653 18.4786 7.07653C18.4586 6.98653 18.4286 6.89653 18.3886 6.81653C20.2486 7.77653 21.5186 9.74653 21.5186 11.9865Z" stroke="#7E7F7F" stroke-width="1.5" stroke-linecap="round" stroke-linejoin="round"/>
</svg>
