<svg width="30" height="30" viewBox="0 0 30 30" fill="none" xmlns="http://www.w3.org/2000/svg">
<path d="M15.0003 2.91666C11.8345 2.91666 9.26074 5.49041 9.26074 8.65624C9.26074 11.7617 11.6895 14.275 14.8553 14.3837C14.952 14.3717 15.0487 14.3717 15.1212 14.3837C15.1453 14.3837 15.1574 14.3837 15.1816 14.3837C15.1937 14.3837 15.1937 14.3837 15.2057 14.3837C18.2991 14.275 20.7278 11.7617 20.7399 8.65624C20.7399 5.49041 18.1662 2.91666 15.0003 2.91666Z" fill="#F79009"/>
<path d="M21.1382 17.5979C17.7669 15.3504 12.269 15.3504 8.87358 17.5979C7.339 18.625 6.49316 20.0146 6.49316 21.5008C6.49316 22.9871 7.339 24.3646 8.8615 25.3796C10.5532 26.5154 12.7765 27.0833 14.9998 27.0833C17.2232 27.0833 19.4465 26.5154 21.1382 25.3796C22.6607 24.3525 23.5065 22.975 23.5065 21.4767C23.4944 19.9904 22.6607 18.6129 21.1382 17.5979ZM17.4165 22.4071H15.9061V23.9175C15.9061 24.4129 15.4952 24.8238 14.9998 24.8238C14.5044 24.8238 14.0936 24.4129 14.0936 23.9175V22.4071H12.5832C12.0877 22.4071 11.6769 21.9963 11.6769 21.5008C11.6769 21.0054 12.0877 20.5946 12.5832 20.5946H14.0936V19.0842C14.0936 18.5888 14.5044 18.1779 14.9998 18.1779C15.4952 18.1779 15.9061 18.5888 15.9061 19.0842V20.5946H17.4165C17.9119 20.5946 18.3227 21.0054 18.3227 21.5008C18.3227 21.9963 17.9119 22.4071 17.4165 22.4071Z" fill="#F79009"/>
</svg>
